<?xml version='1.0' encoding='utf-8'?>
<svg xmlns="http://www.w3.org/2000/svg" xmlns:xlink="http://www.w3.org/1999/xlink" xmlns:shaper="http://www.shapertools.com/namespaces/shaper" shaper:fusionaddin="version:1.9.0" width="28.55cm" height="38.7cm" version="1.1" x="0cm" y="0cm" viewBox="0 0 28.55 38.7" enable-background="new 0 0 28.55 38.7" xml:space="preserve">
  <path transform="matrix(1,0,0,-1,8.0816169,26.0183831)" fill="rgb(0,0,0)" stroke-linecap="round" stroke-linejoin="round" d="M20.0183831,-1.6316169 L20.0183831,14.9683831 A0.3,0.3 180 0,0 20.3183831,15.2683831 L20.4683831,15.2683831 20.4683831,23.9183831 18.9183831,23.9183831 A0.3,0.3 270 0,0 18.6183831,24.2183831 L17.9183831,24.2183831 A0.3,0.3 270 0,0 17.6183831,24.5183831 L17.6183831,26.0183831 -5.8816169,26.0183831 -5.8816169,25.7183831 A1.3,1.3 0 0,0 -6.3829508,24.692648 L-8.0816169,24.692648 -8.0816169,16.092648 -7.1316169,16.092648 -7.1316169,6.8183831 -6.8316169,6.8183831 A0.1,0.1 90 0,0 -6.7316169,6.7183831 L-6.7316169,6.6183831 A0.1,0.1 0 0,0 -6.8316169,6.5183831 L-7.1316169,6.5183831 -7.1316169,-2.7558818 -8.0816169,-2.7558818 -8.0816169,-11.3558818 -6.3829508,-11.3558818 A1.3,1.3 52.0946746 0,0 -5.8816169,-12.3816169 L-5.8816169,-12.6816169 17.6183831,-12.6816169 17.6183831,-11.1816169 A0.3,0.3 180 0,0 17.9183831,-10.8816169 L18.6183831,-10.8816169 A0.3,0.3 180 0,0 18.9183831,-10.5816169 L20.4683831,-10.5816169 20.4683831,-1.9316169 20.3183831,-1.9316169 A0.3,0.3 270 0,0 20.0183831,-1.6316169z" shaper:cutDepth="2.5225cm"/>
  <path transform="matrix(1,0,0,-1,8.0816169,26.0183831)" fill="rgb(255, 255, 255)" stroke-linecap="round" stroke-linejoin="round" d="M8.4274829,-0.9582801 L9.7998086,-0.2286016 11.4265232,-1.8553162 10.6522996,-2.2669782 9.4876121,-2.8862536 9.4128561,-2.8114976 8.4274829,-0.9582801z M15.817543,0.4794304 L15.3966746,0.2556507 13.76996,1.8823653 14.7847056,2.4219151 15.817543,0.4794304z M-3.0266166,-9.3110869 L-1.6266166,-9.3110869 5.4733834,-9.3110869 6.8733834,-9.3110869 8.4982897,-9.3110869 8.4982897,-11.1110869 -4.6515229,-11.1110869 -4.6515229,-9.3110869 -3.0266166,-9.3110869z" shaper:cutDepth="2.5225cm"/>
</svg>
