<?xml version='1.0' encoding='utf-8'?>
<svg xmlns="http://www.w3.org/2000/svg" xmlns:xlink="http://www.w3.org/1999/xlink" xmlns:shaper="http://www.shapertools.com/namespaces/shaper" shaper:fusionaddin="version:1.9.0" width="28.55cm" height="38.7cm" version="1.1" x="0cm" y="0cm" viewBox="0 0 28.55 38.7" enable-background="new 0 0 28.55 38.7" xml:space="preserve">
  <path transform="matrix(1,0,0,-1,8.0816169,26.0183831)" fill="rgb(0,0,0)" stroke-linecap="round" stroke-linejoin="round" d="M20.0183831,-1.6316169 L20.0183831,14.9683831 A0.3,0.3 180 0,0 20.3183831,15.2683831 L20.4683831,15.2683831 20.4683831,23.9183831 18.9183831,23.9183831 A0.3,0.3 270 0,0 18.6183831,24.2183831 L17.9183831,24.2183831 A0.3,0.3 270 0,0 17.6183831,24.5183831 L17.6183831,26.0183831 -5.8816169,26.0183831 -5.8816169,25.7183831 A1.3,1.3 0 0,0 -6.3829508,24.692648 L-8.0816169,24.692648 -8.0816169,16.092648 -7.1316169,16.092648 -7.1316169,6.8183831 -6.8316169,6.8183831 A0.1,0.1 90 0,0 -6.7316169,6.7183831 L-6.7316169,6.6183831 A0.1,0.1 0 0,0 -6.8316169,6.5183831 L-7.1316169,6.5183831 -7.1316169,-2.7558818 -8.0816169,-2.7558818 -8.0816169,-11.3558818 -6.3829508,-11.3558818 A1.3,1.3 52.0946746 0,0 -5.8816169,-12.3816169 L-5.8816169,-12.6816169 17.6183831,-12.6816169 17.6183831,-11.1816169 A0.3,0.3 180 0,0 17.9183831,-10.8816169 L18.6183831,-10.8816169 A0.3,0.3 180 0,0 18.9183831,-10.5816169 L20.4683831,-10.5816169 20.4683831,-1.9316169 20.3183831,-1.9316169 A0.3,0.3 270 0,0 20.0183831,-1.6316169z" shaper:cutDepth="0.4cm"/>
  <path transform="matrix(1,0,0,-1,8.0816169,26.0183831)" fill="rgb(255, 255, 255)" stroke-linecap="round" stroke-linejoin="round" d="M5.9433831,0.6579754 L9.4128561,-2.8114976 8.4274829,-0.9582801 9.7998086,-0.2286016 7.4283073,2.1428997 10.4688665,5.1834588 13.76996,1.8823653 14.7847056,2.4219151 15.817543,0.4794304 15.3966746,0.2556507 16.5355404,-0.883215 A0.4,0.4 225 0,1 17.2183831,-0.6003723 L17.2183831,1.2381053 A0.4,0.4 0 0,1 17.1012258,1.520948 L11.9537907,6.6683831 17.1012258,11.8158181 A0.4,0.4 315 0,1 17.2183831,12.0986609 L17.2183831,13.9371385 A0.4,0.4 0 0,1 16.5355404,14.2199812 L10.4688665,8.1533073 7.4283073,11.1938665 16.3199812,20.0855404 A0.4,0.4 315 0,1 16.0371385,20.7683831 L14.1986609,20.7683831 A0.4,0.4 90 0,1 13.9158181,20.6512258 L5.9433831,12.6787907 -2.029052,20.6512258 A0.4,0.4 45 0,1 -2.3118947,20.7683831 L-4.1503723,20.7683831 A0.4,0.4 90 0,1 -4.433215,20.0855404 L4.4584588,11.1938665 1.4178997,8.1533073 -4.6487742,14.2199812 A0.4,0.4 45 0,1 -5.3316169,13.9371385 L-5.3316169,12.0986609 A0.4,0.4 180 0,1 -5.2144596,11.8158181 L-0.0670246,6.6683831 -5.2144596,1.520948 A0.4,0.4 135 0,1 -5.3316169,1.2381053 L-5.3316169,-0.6003723 A0.4,0.4 180 0,1 -4.6487742,-0.883215 L1.4178997,5.1834588 4.4584588,2.1428997 -4.433215,-6.7487742 A0.4,0.4 135 0,1 -4.1503723,-7.4316169 L-2.3118947,-7.4316169 A0.4,0.4 270 0,1 -2.029052,-7.3144596 L5.9433831,0.6579754z M16.3199812,-6.7487742 L11.4265232,-1.8553162 9.4876121,-2.8862536 13.9158181,-7.3144596 A0.4,0.4 225 0,1 14.1986609,-7.4316169 L16.0371385,-7.4316169 A0.4,0.4 270 0,1 16.3199812,-6.7487742z M-6.9316169,24.692648 L-6.9316169,16.092648 -7.1316169,16.092648 -8.0816169,16.092648 -8.0816169,24.692648 -6.9316169,24.692648z M-8.0816169,-11.3558818 L-8.0816169,-2.7558818 -7.1316169,-2.7558818 -6.9316169,-2.7558818 -6.9316169,-11.3558818 -8.0816169,-11.3558818z M-1.0816169,25.7183831 L-5.8816169,25.7183831 -5.8816169,26.0183831 17.6183831,26.0183831 17.6183831,25.1183831 -1.0816169,25.1183831 -1.0816169,25.7183831z M17.6183831,-12.6816169 L17.6183831,-11.7816169 -1.0816169,-11.7816169 -1.0816169,-12.3858129 A0.3,0.3 80.4059318 0,1 -1.1316169,-12.3816169 L-5.8816169,-12.3816169 -5.8816169,-12.6816169 17.6183831,-12.6816169z M-1.0816169,-12.3858129 A0.3,0.3 80.4059318 0,1 -1.1316169,-12.3816169 L-5.8816169,-12.3816169 A1.3,1.3 0 0,1 -6.0283607,-11.7816169 L-1.0816169,-11.7816169 -1.0816169,-12.3858129z M-6.0283607,25.1183831 A1.3,1.3 332.5135737 0,1 -5.8816169,25.7183831 L-1.0816169,25.7183831 -1.0816169,25.1183831 -6.0283607,25.1183831z M-6.8316169,6.5183831 A0.1,0.1 270 0,1 -6.7316169,6.6183831 L-6.7316169,6.7183831 A0.1,0.1 0 0,1 -6.8316169,6.8183831 L-5.6316169,6.8183831 A0.15,0.15 90 0,0 -5.6316169,6.5183831 L-6.8316169,6.5183831z M13.9683831,24.5683831 L17.6183831,24.5683831 17.6183831,25.1183831 13.5683831,25.1183831 13.5683831,24.9683831 A0.4,0.4 180 0,1 13.9683831,24.5683831z M17.6183831,-11.2316169 L17.6183831,-11.7816169 13.5683831,-11.7816169 13.5683831,-11.6316169 A0.4,0.4 180 0,0 13.9683831,-11.2316169 L17.6183831,-11.2316169z M8.4274829,-0.9582801 L9.7998086,-0.2286016 11.4265232,-1.8553162 10.6522996,-2.2669782 9.4876121,-2.8862536 9.4128561,-2.8114976 8.4274829,-0.9582801z M15.817543,0.4794304 L15.3966746,0.2556507 13.76996,1.8823653 14.7847056,2.4219151 15.817543,0.4794304z M-3.0266166,-9.3110869 L-1.6266166,-9.3110869 5.4733834,-9.3110869 6.8733834,-9.3110869 8.4982897,-9.3110869 8.4982897,-11.1110869 -4.6515229,-11.1110869 -4.6515229,-9.3110869 -3.0266166,-9.3110869z" shaper:cutDepth="0.4cm"/>
</svg>
