<?xml version='1.0' encoding='utf-8'?>
<svg xmlns="http://www.w3.org/2000/svg" xmlns:xlink="http://www.w3.org/1999/xlink" xmlns:shaper="http://www.shapertools.com/namespaces/shaper" shaper:fusionaddin="version:1.9.0" width="28.55cm" height="38.7cm" version="1.1" x="0cm" y="0cm" viewBox="0 0 28.55 38.7" enable-background="new 0 0 28.55 38.7" xml:space="preserve"><path id="path2" d="M -5.8823981 26.018383 L -5.8823981 25.717602 A 1.3 1.3 0 0 0 -6.3823981 24.692211 L -8.0816169 24.692211 L -8.0816169 16.092602 L -7.1323981 16.092602 L -7.1323981 6.8191643 L -6.8316169 6.8191643 A 0.1 0.1 0 0 0 -6.7320075 6.7176018 L -6.7320075 6.6179925 A 0.1 0.1 0 0 0 -6.8316169 6.5183831 L -7.1323981 6.5183831 L -7.1323981 -2.7550544 L -8.0816169 -2.7550544 L -8.0816169 -11.356617 L -6.3823981 -11.356617 A 1.3 1.3 0 0 0 -5.8823981 -12.382008 L -5.8823981 -12.680836 L 17.617602 -12.680836 L 17.617602 -11.180836 A 0.3 0.3 0 0 0 17.918383 -10.882008 L 18.617602 -10.882008 A 0.3 0.3 0 0 0 18.918383 -10.581226 L 20.469164 -10.581226 L 20.469164 -1.9308357 L 20.318774 -1.9308357 A 0.3 0.3 0 0 0 20.017992 -1.6320075 L 20.017992 14.967602 A 0.3 0.3 0 0 0 20.318774 15.268383 L 20.469164 15.268383 L 20.469164 23.918774 L 18.918383 23.918774 A 0.3 0.3 0 0 0 18.617602 24.217602 L 17.918383 24.217602 A 0.3 0.3 0 0 0 17.617602 24.518383 L 17.617602 26.018383 L -5.8823981 26.018383 z " transform="matrix(1,0,0,-1,8.0816169,26.0183831)" fill="rgb(0,0,0)" shaper:cutDepth="0.4cm"/>
<path id="path2" d="M -5.8823981 26.018383 L -5.8823981 25.717602 A 1.3 1.3 0 0 0 -6.0288825 25.117992 L -1.0816169 25.117992 L 13.568774 25.117992 L 13.568774 24.967602 A 0.4 0.4 0 0 1 13.969164 24.569164 L 17.617602 24.569164 L 17.617602 25.117992 L 17.617602 26.018383 L -5.8823981 26.018383 z M -8.0816169 24.692211 L -8.0816169 16.092602 L -7.1323981 16.092602 L -6.9312263 16.092602 L -6.9312263 24.692211 L -8.0816169 24.692211 z M -4.1499763 20.768383 A 0.4 0.4 0 0 1 -4.4331794 20.084789 L 4.4593987 11.194164 L 1.4183831 8.1531487 L -4.6480231 14.219555 A 0.4 0.4 0 0 1 -5.3316169 13.936352 L -5.3316169 12.098461 A 0.4 0.4 0 0 1 -5.2144294 11.815258 L -0.067945025 6.6687737 L -5.2144294 1.5203362 A 0.4 0.4 0 0 1 -5.3316169 1.2371331 L -5.3316169 -0.60075753 A 0.4 0.4 0 0 1 -4.6480231 -0.88396065 L 1.4183831 5.1843987 L 4.4593987 2.1433831 L -4.4331794 -6.749195 A 0.4 0.4 0 0 1 -4.1499763 -7.4308357 L -2.3120856 -7.4308357 A 0.4 0.4 0 0 1 -2.0288825 -7.3136482 L 5.9437737 0.65705497 L 9.4125237 -2.811695 L 9.4867425 -2.8859138 L 13.91643 -7.3136482 A 0.4 0.4 0 0 1 14.199633 -7.4308357 L 16.037524 -7.4308357 A 0.4 0.4 0 0 1 16.320727 -6.749195 L 11.426196 -1.8546638 L 9.7992425 -0.22771065 L 7.4281487 2.1433831 L 10.469164 5.1843987 L 13.769946 1.8816643 L 15.396899 0.25471122 L 16.535571 -0.88396065 A 0.4 0.4 0 0 1 17.219164 -0.60075753 L 17.219164 1.2371331 A 0.4 0.4 0 0 1 17.101977 1.5203362 L 11.953539 6.6687737 L 17.101977 11.815258 A 0.4 0.4 0 0 1 17.219164 12.098461 L 17.219164 13.936352 A 0.4 0.4 0 0 1 16.535571 14.219555 L 10.469164 8.1531487 L 7.4281487 11.194164 L 16.320727 20.084789 A 0.4 0.4 0 0 1 16.037524 20.768383 L 14.199633 20.768383 A 0.4 0.4 0 0 1 13.91643 20.651196 L 5.9437737 12.678539 L -2.0288825 20.651196 A 0.4 0.4 0 0 1 -2.3120856 20.768383 L -4.1499763 20.768383 z M -6.8316169 6.8191643 A 0.1 0.1 0 0 0 -6.7320075 6.7176018 L -6.7320075 6.6179925 A 0.1 0.1 0 0 0 -6.8316169 6.5183831 L -5.6323981 6.5183831 A 0.15039062 0.15039062 0 0 1 -5.6323981 6.8191643 L -6.8316169 6.8191643 z M -8.0816169 -2.7550544 L -8.0816169 -11.356617 L -6.9312263 -11.356617 L -6.9312263 -2.7550544 L -7.1323981 -2.7550544 L -8.0816169 -2.7550544 z M -4.6519294 -9.311695 L -4.6519294 -11.110523 L 8.4984612 -11.110523 L 8.4984612 -9.311695 L 6.8734612 -9.311695 L 5.4730706 -9.311695 L -1.6265388 -9.311695 L -3.0269294 -9.311695 L -4.6519294 -9.311695 z M 13.969164 -11.231617 A 0.4 0.4 0 0 1 13.568774 -11.632008 L 13.568774 -11.782398 L -1.0816169 -11.782398 L -6.0288825 -11.782398 A 1.3 1.3 0 0 0 -5.8823981 -12.382008 L -5.8823981 -12.680836 L 17.617602 -12.680836 L 17.617602 -11.782398 L 17.617602 -11.231617 L 13.969164 -11.231617 z " transform="matrix(1,0,0,-1,8.0816169,26.0183831)" style="fill:#ffffff;fill-opacity:1" shaper:cutDepth="0.4cm"/>
</svg>
