<?xml version='1.0' encoding='utf-8'?>
<svg xmlns="http://www.w3.org/2000/svg" xmlns:xlink="http://www.w3.org/1999/xlink" xmlns:shaper="http://www.shapertools.com/namespaces/shaper" shaper:fusionaddin="version:1.9.0" width="28.55cm" height="38.7cm" version="1.1" x="0cm" y="0cm" viewBox="0 0 28.55 38.7" enable-background="new 0 0 28.55 38.7" xml:space="preserve"><path id="path2" d="M -5.8823981 26.018383 L -5.8823981 25.717602 A 1.3 1.3 0 0 0 -6.3823981 24.692211 L -8.0816169 24.692211 L -8.0816169 16.092602 L -7.1323981 16.092602 L -7.1323981 6.8191643 L -6.8316169 6.8191643 A 0.1 0.1 0 0 0 -6.7320075 6.7176018 L -6.7320075 6.6179925 A 0.1 0.1 0 0 0 -6.8316169 6.5183831 L -7.1323981 6.5183831 L -7.1323981 -2.7550544 L -8.0816169 -2.7550544 L -8.0816169 -11.356617 L -6.3823981 -11.356617 A 1.3 1.3 0 0 0 -5.8823981 -12.382008 L -5.8823981 -12.680836 L 17.617602 -12.680836 L 17.617602 -11.180836 A 0.3 0.3 0 0 0 17.918383 -10.882008 L 18.617602 -10.882008 A 0.3 0.3 0 0 0 18.918383 -10.581226 L 20.469164 -10.581226 L 20.469164 -1.9308357 L 20.318774 -1.9308357 A 0.3 0.3 0 0 0 20.017992 -1.6320075 L 20.017992 14.967602 A 0.3 0.3 0 0 0 20.318774 15.268383 L 20.469164 15.268383 L 20.469164 23.918774 L 18.918383 23.918774 A 0.3 0.3 0 0 0 18.617602 24.217602 L 17.918383 24.217602 A 0.3 0.3 0 0 0 17.617602 24.518383 L 17.617602 26.018383 L -5.8823981 26.018383 z " transform="matrix(1,0,0,-1,8.0816169,26.0183831)" fill="rgb(0,0,0)" shaper:cutDepth="2.5225cm"/>
<path id="path2" d="M 14.785571 2.42268 L 13.769946 1.8816643 L 15.396899 0.25471122 L 15.816821 0.4793206 L 14.785571 2.42268 z M 9.7992425 -0.22771065 L 8.4281487 -0.9581794 L 9.4125237 -2.811695 L 9.4867425 -2.8859138 L 10.652758 -2.2667732 L 11.426196 -1.8546638 L 9.7992425 -0.22771065 z M -4.6519294 -9.311695 L -4.6519294 -11.110523 L 8.4984612 -11.110523 L 8.4984612 -9.311695 L 6.8734612 -9.311695 L 5.4730706 -9.311695 L -1.6265388 -9.311695 L -3.0269294 -9.311695 L -4.6519294 -9.311695 z " transform="matrix(1,0,0,-1,8.0816169,26.0183831)" style="fill:#ffffff;fill-opacity:1" shaper:cutDepth="2.5225cm"/>
</svg>
