<?xml version='1.0' encoding='utf-8'?>
<svg xmlns="http://www.w3.org/2000/svg" xmlns:xlink="http://www.w3.org/1999/xlink" xmlns:shaper="http://www.shapertools.com/namespaces/shaper" shaper:fusionaddin="version:1.9.0" width="28.55cm" height="38.7cm" version="1.1" x="0cm" y="0cm" viewBox="0 0 28.55 38.7" enable-background="new 0 0 28.55 38.7" xml:space="preserve"><path id="path2" d="M -18.778281 18.591392 L -18.778281 18.290611 A 1.3 1.3 0 0 0 -19.278281 17.26522 L -20.9775 17.26522 L -20.9775 8.6656105 L -20.028281 8.6656105 L -20.028281 -0.60782695 L -19.7275 -0.60782695 A 0.1 0.1 0 0 0 -19.627891 -0.70938945 L -19.627891 -0.80899883 A 0.1 0.1 0 0 0 -19.7275 -0.9086082 L -20.028281 -0.9086082 L -20.028281 -10.182046 L -20.9775 -10.182046 L -20.9775 -18.783608 L -19.278281 -18.783608 A 1.3 1.3 0 0 0 -18.778281 -19.808999 L -18.778281 -20.107827 L 4.7217185 -20.107827 L 4.7217185 -18.607827 A 0.3 0.3 0 0 0 5.0224998 -18.308999 L 5.7217185 -18.308999 A 0.3 0.3 0 0 0 6.0224998 -18.008218 L 7.573281 -18.008218 L 7.573281 -9.357827 L 7.4228904 -9.357827 A 0.3 0.3 0 0 0 7.1221092 -9.0589988 L 7.1221092 7.5406105 A 0.3 0.3 0 0 0 7.4228904 7.8413918 L 7.573281 7.8413918 L 7.573281 16.491782 L 6.0224998 16.491782 A 0.3 0.3 0 0 0 5.7217185 16.790611 L 5.0224998 16.790611 A 0.3 0.3 0 0 0 4.7217185 17.091392 L 4.7217185 18.591392 L -18.778281 18.591392 z " transform="matrix(1,0,0,-1,20.9775002,18.5913918)" fill="rgb(0,0,0)" shaper:cutDepth="2.035976cm"/>
<path id="path2" d="M 2.6865623 17.446861 L -2.2431252 8.1773293 L -3.4364846 8.8101418 L -4.4677346 6.8687355 L -1.8192971 5.4605324 L -4.7216408 0.00154805 L -4.7216408 1.8199074 L -4.8720315 1.8199074 L -4.8720315 14.220298 L -4.4716408 14.220298 L -4.4716408 15.021079 L -4.2724221 15.220298 L -3.723594 15.220298 L -3.723594 17.021079 L -18.221641 17.021079 L -18.221641 15.220298 L -17.672813 15.220298 L -17.471641 15.021079 L -17.471641 14.220298 L -17.073203 14.220298 L -17.073203 1.8199074 L -17.221641 1.8199074 L -17.221641 -8.3793113 L -17.073203 -8.3793113 L -17.073203 -11.725014 L -17.319297 -12.187905 A 2.8 2.8 0 0 0 -17.073203 -12.160561 L -17.073203 -13.379311 L -15.872031 -13.379311 L -15.872031 -12.031655 A 2.8 2.8 0 1 0 -18.672813 -14.73478 L -19.317344 -15.947671 A 3.7 3.7 0 0 1 -17.614219 -17.853921 L -13.729453 -19.920327 L -8.6181252 -10.308999 L -7.2782815 -10.308999 L -7.2782815 -7.3636863 L -6.2216408 -5.3773582 L -6.2216408 -8.3793113 L -6.0732033 -8.3793113 L -6.0732033 -8.5023582 L -11.366172 -18.457436 L -10.659141 -18.834389 L -6.0732033 -10.209389 L -6.0732033 -13.379311 L -4.8720315 -13.379311 L -4.8720315 -8.3793113 L -4.7216408 -8.3793113 L -4.7216408 -7.6683738 L 0.4209373 2.0035012 L 0.95023417 1.7222512 L 1.8896873 3.4878762 L 2.9209373 5.4312355 L 1.729531 6.064048 L 6.6592185 15.335532 L 2.6865623 17.446861 z M -14.522422 15.220298 L -7.4228127 15.220298 L -7.4228127 13.720298 L -6.0732033 13.720298 L -6.0732033 1.8199074 L -6.2216408 1.8199074 L -6.2216408 -2.8207176 L -7.2782815 -4.8089988 L -7.2782815 -4.107827 L -14.678672 -4.107827 L -14.678672 -9.5043113 L -15.623985 -9.0023582 L -15.872031 -9.467202 L -15.872031 -8.3793113 L -15.721641 -8.3793113 L -15.721641 1.8199074 L -15.872031 1.8199074 L -15.872031 13.720298 L -14.522422 13.720298 L -14.522422 15.220298 z M -11.165 13.368736 A 1.4126958 1.4126958 0 0 1 -11.916953 13.024986 L -14.000938 13.024986 L -14.000938 11.524986 L -13.022422 11.524986 A 0.1 0.1 0 0 0 -12.934531 11.374595 L -14.387656 8.798423 A 4.0030612 4.0030612 0 0 1 -14.387656 4.5972512 L -13.834922 3.6187355 L -12.934531 2.0210793 A 0.1 0.1 0 0 0 -13.022422 1.8706887 L -14.000938 1.8706887 L -14.000938 0.37068867 L -11.916953 0.37068867 A 1.4126958 1.4126958 0 0 1 -9.7489846 0.73396992 L -8.1220315 3.6187355 A 4.2 4.2 0 0 1 -8.1220315 9.7769387 L -9.7489846 12.661704 A 1.4126958 1.4126958 0 0 1 -11.165 13.368736 z M -0.76070333 4.8960793 L 0.12210917 4.4273293 L -0.81539083 2.6617043 L -0.28609395 2.3785012 L -4.7216408 -5.9632957 L -4.7216408 -2.5550926 L -0.76070333 4.8960793 z M 2.9228904 0.89217305 L 2.9228904 -17.107827 L 4.7217185 -17.107827 L 4.7217185 0.89217305 L 2.9228904 0.89217305 z M -1.176719 -2.607827 A 0.5 0.5 0 0 1 -1.676719 -3.107827 L -1.676719 -7.8089988 A 1 1 0 0 1 -2.676719 -8.8089988 L -2.676719 -11.408608 A 1 1 0 0 1 -1.676719 -12.408608 L -1.676719 -17.107827 A 0.5 0.5 0 0 1 -1.176719 -17.607827 L 1.4228904 -17.607827 A 0.5 0.5 0 0 1 1.9228904 -17.107827 L 1.9228904 -13.408608 A 9.375 9.375 0 0 0 1.9228904 -6.8089988 L 1.9228904 -3.107827 A 0.5 0.5 0 0 1 1.4228904 -2.607827 L -1.176719 -2.607827 z M -11.569297 -10.308999 L -10.204063 -10.308999 L -10.504844 -10.875405 L -11.034141 -10.594155 L -11.569297 -10.308999 z " transform="matrix(1,0,0,-1,20.9775002,18.5913918)" style="fill:#ffffff;fill-opacity:1" shaper:cutDepth="2.035976cm"/>
</svg>
