<?xml version='1.0' encoding='utf-8'?>
<svg xmlns="http://www.w3.org/2000/svg" xmlns:xlink="http://www.w3.org/1999/xlink" xmlns:shaper="http://www.shapertools.com/namespaces/shaper" shaper:fusionaddin="version:1.9.0" width="28.55cm" height="38.7cm" version="1.1" x="0cm" y="0cm" viewBox="0 0 28.55 38.7" enable-background="new 0 0 28.55 38.7" xml:space="preserve">
  <path transform="matrix(1,0,0,-1,20.9775002,18.5913918)" fill="rgb(0,0,0)" stroke-linecap="round" stroke-linejoin="round" d="M7.1224998,7.5413918 A0.3,0.3 180 0,0 7.4224998,7.8413918 L7.5724998,7.8413918 7.5724998,16.4913918 6.0224998,16.4913918 A0.3,0.3 270 0,0 5.7224998,16.7913918 L5.0224998,16.7913918 A0.3,0.3 270 0,0 4.7224998,17.0913918 L4.7224998,18.5913918 -18.7775002,18.5913918 -18.7775002,18.2913918 A1.3,1.3 0 0,0 -19.2788341,17.2656567 L-20.9775002,17.2656567 -20.9775002,8.6656567 -20.0275002,8.6656567 -20.0275002,-0.6086082 -19.7275002,-0.6086082 A0.1,0.1 90 0,0 -19.6275002,-0.7086082 L-19.6275002,-0.8086082 A0.1,0.1 0 0,0 -19.7275002,-0.9086082 L-20.0275002,-0.9086082 -20.0275002,-10.1828731 -20.9775002,-10.1828731 -20.9775002,-18.7828731 -19.2788341,-18.7828731 A1.3,1.3 52.0946746 0,0 -18.7775002,-19.8086082 L-18.7775002,-20.1086082 4.7224998,-20.1086082 4.7224998,-18.6086082 A0.3,0.3 180 0,0 5.0224998,-18.3086082 L5.7224998,-18.3086082 A0.3,0.3 180 0,0 6.0224998,-18.0086082 L7.5724998,-18.0086082 7.5724998,-9.3586082 7.4224998,-9.3586082 A0.3,0.3 270 0,0 7.1224998,-9.0586082 L7.1224998,7.5413918z" shaper:cutDepth="5.08cm"/>
  <path transform="matrix(1,0,0,-1,20.9775002,18.5913918)" fill="rgb(255, 255, 255)" stroke-linecap="round" stroke-linejoin="round" d="M-14.5224998,15.2208618 L-14.5224998,13.7208618 -15.9224998,13.7208618 -15.9224998,15.2208618 -14.5224998,15.2208618z M-6.0224998,15.2208618 L-6.0224998,13.7208618 -7.4224998,13.7208618 -7.4224998,15.2208618 -6.0224998,15.2208618z M-14.3870286,8.797955 L-12.9348414,11.3751351 A0.1,0.1 330.599649 0,1 -13.0219625,11.524226 L-14.0000516,11.524226 -14.0000516,13.024226 -11.9175961,13.024226 A1.4126958,1.4126958 131.635095 0,0 -9.7482675,12.6618947 L-8.1228506,9.7772856 A4.2,4.2 47.1531412 0,0 -8.1224535,3.6189928 L-9.7482675,0.733679 A1.4126958,1.4126958 330.599649 0,0 -11.9175961,0.3713477 L-14.0000516,0.3713477 -14.0000516,1.8713477 -13.0219625,1.8713477 A0.1,0.1 270 0,1 -12.9348414,2.0204386 L-13.8355933,3.6189928 A4.2000005,4.2000005 227.1457526 0,1 -13.8351962,3.6186244 L-14.3870286,4.597955 A4.0030612,4.0030612 211.6412199 0,0 -14.3870286,8.797955z M6.6591319,15.3350808 L1.7296805,6.0641311 2.9216597,5.4303444 1.8888223,3.4878597 -4.4684004,6.868055 -3.4355629,8.8105397 -2.2435837,8.1767531 2.6858677,17.4477028 6.6591319,15.3350808z M-1.1775002,-2.6086082 L1.4224998,-2.6086082 A0.5,0.5 90 0,0 1.9224998,-3.1086082 L1.9224998,-6.8086082 A9.375,9.375 159.3903071 0,1 1.9224998,-13.4086082 L1.9224998,-17.1086082 A0.5,0.5 0 0,0 1.4224998,-17.6086082 L-1.1775002,-17.6086082 A0.5,0.5 270 0,0 -1.6775002,-17.1086082 L-1.6775002,-12.4086082 A1,1 270 0,0 -2.6775002,-11.4086082 L-2.6775002,-8.8086082 A1,1 180 0,0 -1.6775002,-7.8086082 L-1.6775002,-3.1086082 A0.5,0.5 180 0,0 -1.1775002,-2.6086082z" shaper:cutDepth="5.08cm"/>
</svg>
